<?xml version="1.0" encoding="utf-8"?>
<!-- Generator: Adobe Illustrator 16.0.4, SVG Export Plug-In . SVG Version: 6.00 Build 0)  -->
<!DOCTYPE svg PUBLIC "-//W3C//DTD SVG 1.1//EN" "http://www.w3.org/Graphics/SVG/1.1/DTD/svg11.dtd">
<svg version="1.1" xmlns="http://www.w3.org/2000/svg" xmlns:xlink="http://www.w3.org/1999/xlink" x="0px" y="0px" width="400px"
	 height="200px" viewBox="0 0 400 200" enable-background="new 0 0 400 200" xml:space="preserve">
<g id="Layer_2">
	<g>
		<rect x="-1.666" fill="#09675D" width="401.666" height="200"/>
	</g>
	<g>
		<g id="Layer_4">
			<circle fill="#74C69C" cx="367.411" cy="87.923" r="1.744"/>
			<circle fill="#74C69C" cx="317.411" cy="110.923" r="1.744"/>
			<circle fill="#74C69C" cx="327.411" cy="80.923" r="1.744"/>
			<circle fill="#74C69C" cx="267.411" cy="140.923" r="1.744"/>
			<circle fill="#74C69C" cx="357.411" cy="160.923" r="1.744"/>
			<circle fill="#74C69C" cx="336.549" cy="121.917" r="0.952"/>
			<circle fill="#74C69C" cx="307.196" cy="115.521" r="0.952"/>
			<circle fill="#74C69C" cx="321.409" cy="105.728" r="0.952"/>
			<circle fill="#74C69C" cx="275.544" cy="112.177" r="0.952"/>
			<circle fill="#74C69C" cx="308.212" cy="150.458" r="0.953"/>
			<circle fill="#74C69C" cx="399.048" cy="94.917" r="0.952"/>
			<circle fill="#74C69C" cx="371.695" cy="88.521" r="0.952"/>
			<circle fill="#74C69C" cx="383.908" cy="78.727" r="0.952"/>
			<circle fill="#74C69C" cx="338.043" cy="85.177" r="0.952"/>
			<circle fill="#74C69C" cx="370.711" cy="123.458" r="0.953"/>
			<circle fill="#74C69C" cx="388.775" cy="168.946" r="0.952"/>
			<circle fill="#74C69C" cx="381.283" cy="139.853" r="0.952"/>
			<circle fill="#74C69C" cx="396.423" cy="148.141" r="0.952"/>
			<circle fill="#74C69C" cx="370.031" cy="110.08" r="0.953"/>
			<circle fill="#74C69C" cx="350.537" cy="156.476" r="0.952"/>
			<circle fill="#74C69C" cx="368.256" cy="40.666" r="1.744"/>
			<circle fill="#74C69C" cx="105.849" cy="36.699" r="1.744"/>
			<circle fill="#74C69C" cx="162.327" cy="46.936" r="1.744"/>
			<circle fill="#74C69C" cx="244.904" cy="184.473" r="1.337"/>
			<circle fill="#74C69C" cx="24.128" cy="32.513" r="1.744"/>
			<circle fill="#74C69C" cx="66.611" cy="44.836" r="0.952"/>
			<circle fill="#74C69C" cx="129.688" cy="33.87" r="0.952"/>
			<circle fill="#74C69C" cx="101.04" cy="41.156" r="0.952"/>
			<circle fill="#74C69C" cx="116.198" cy="7.99" r="0.952"/>
			<circle fill="#74C69C" cx="65.986" cy="4.621" r="0.953"/>
			<circle fill="#74C69C" cx="22.269" cy="88.417" r="0.952"/>
			<circle fill="#74C69C" cx="364.835" cy="43.313" r="0.952"/>
			<circle fill="#74C69C" cx="363.312" cy="58.894" r="0.952"/>
			<circle fill="#74C69C" cx="151.855" cy="51.571" r="0.952"/>
			<circle fill="#74C69C" cx="41.643" cy="68.202" r="0.953"/>
			<circle fill="#74C69C" cx="-3.523" cy="49.35" r="0.952"/>
			<circle fill="#74C69C" cx="22.527" cy="64.313" r="0.952"/>
			<circle fill="#74C69C" cx="6.02" cy="69.356" r="0.952"/>
			<circle fill="#74C69C" cx="51.691" cy="77.061" r="0.953"/>
			<circle fill="#74C69C" cx="32.112" cy="30.701" r="0.952"/>
			<circle fill="#74C69C" cx="179.781" cy="10.011" r="1.744"/>
			<circle fill="#74C69C" cx="234.784" cy="8.074" r="1.744"/>
			<circle fill="#74C69C" cx="213.986" cy="31.896" r="1.744"/>
			<circle fill="#74C69C" cx="292.484" cy="-0.321" r="1.744"/>
			<circle fill="#74C69C" cx="237.162" cy="176.516" r="1.744"/>
			<circle fill="#74C69C" cx="336.957" cy="190.96" r="0.731"/>
			<circle fill="#74C69C" cx="245.982" cy="7.771" r="0.953"/>
			<circle fill="#74C69C" cx="229.091" cy="11.326" r="0.952"/>
			<circle fill="#74C69C" cx="273.895" cy="23.064" r="0.953"/>
			<circle fill="#74C69C" cx="308.519" cy="185.146" r="0.952"/>
			<circle fill="#74C69C" cx="284.759" cy="191.579" r="0.729"/>
			<circle fill="#74C69C" cx="176.06" cy="7.807" r="0.952"/>
			<circle fill="#74C69C" cx="161.014" cy="12.133" r="0.952"/>
			<circle fill="#74C69C" cx="205.818" cy="23.871" r="0.952"/>
			<circle fill="#74C69C" cx="313.246" cy="179.768" r="0.731"/>
			<circle fill="#74C69C" cx="211.318" cy="157.019" r="0.952"/>
			<circle fill="#74C69C" cx="207.012" cy="186.749" r="0.953"/>
			<circle fill="#74C69C" cx="196.239" cy="173.263" r="0.952"/>
			<circle fill="#74C69C" cx="309.771" cy="189.433" r="0.73"/>
			<circle fill="#74C69C" cx="241.79" cy="183.27" r="0.953"/>
			<circle fill="#74C69C" cx="386.519" cy="13.146" r="0.952"/>
		</g>
	</g>
	<g>
		<g>
			<g id="Layer_3">
				<defs>
					<circle id="SVGID_1_" cx="129.118" cy="136.025" r="66.413"/>
				</defs>
				<defs>
					<circle id="SVGID_2_" cx="128.238" cy="133.557" r="66.415"/>
				</defs>
				<clipPath id="SVGID_3_">
					<use xlink:href="#SVGID_1_"  overflow="visible"/>
				</clipPath>
				<clipPath id="SVGID_4_" clip-path="url(#SVGID_3_)">
					<use xlink:href="#SVGID_2_"  overflow="visible"/>
				</clipPath>
				
					<linearGradient id="SVGID_5_" gradientUnits="userSpaceOnUse" x1="335.1182" y1="-199.981" x2="335.1182" y2="-304.1559" gradientTransform="matrix(1 0 0 -1 -206 -95)">
					<stop  offset="0" style="stop-color:#2BB673"/>
					<stop  offset="1" style="stop-color:#007B67"/>
				</linearGradient>
				<circle clip-path="url(#SVGID_4_)" fill="url(#SVGID_5_)" cx="129.118" cy="136.025" r="66.413"/>
				
					<ellipse transform="matrix(-0.1391 -0.9903 0.9903 -0.1391 -13.2752 270.7224)" clip-path="url(#SVGID_4_)" fill="#09675D" cx="111.039" cy="141.132" rx="66.415" ry="58.17"/>
			</g>
			<g>
				<path fill="#09675D" d="M147.997,145.24c0,0,47.754-20.477,41.882-36.608c-0.848-2.327,4.365,5.054,4.365,5.054
					s6.24,3.929-29.664,27.416C128.677,164.588,147.997,145.24,147.997,145.24z"/>
			</g>
			<g>
				<path fill="#2BB673" d="M276.177,85.177c-6.401-19.104-60.977-18.586-128.128-0.508c9.724,4.526,18.539,10.329,24.788,17.293
					c21.774-3.75,36.976-3.101,38.931,2.729c3.242,9.683-31.232,29.967-77.009,45.304c-45.774,15.341-85.513,19.929-88.757,10.243
					c-0.439-1.314-0.164-2.828,0.717-4.49c-0.943-4.156-1.572-8.469-1.824-12.91c-0.384-6.758,0.099-13.326,1.328-19.559
					C3.254,145.266-22.99,168.658-17.939,183.73c7.404,22.097,79.247,17.946,160.466-9.27
					C223.738,147.246,283.579,107.271,276.177,85.177z"/>
			</g>
			<g>
				<polyline fill="#09675D" points="49.344,147.421 -32.666,183.879 -2.529,202.438 119.294,151.352 				"/>
			</g>
			<g>
				<circle fill="#74C69C" cx="300.333" cy="46.667" r="15.583"/>
			</g>
		</g>
	</g>
</g>
<g id="Layer_3_1_">
	<rect x="-1.666" opacity="0.3" fill="#09675D" width="401.666" height="200"/>
</g>
</svg>
